<svg width="936" height="888" xmlns="http://www.w3.org/2000/svg" xmlns:xlink="http://www.w3.org/1999/xlink" overflow="hidden"><defs><clipPath id="clip0"><rect x="703" y="327" width="936" height="888"/></clipPath></defs><g clip-path="url(#clip0)" transform="translate(-703 -327)"><path d="M808 892C808 743.988 927.988 624 1076 624L1266 624C1414.01 624 1534 743.988 1534 892L1534 892C1534 1040.01 1414.01 1160 1266 1160L1076 1160C927.988 1160 808 1040.01 808 892Z" stroke="#25B189" stroke-width="110" stroke-miterlimit="8" fill="none" fill-rule="evenodd"/><path d="M1093.5 441.5C1093.5 398.422 1128.42 363.5 1171.5 363.5 1214.58 363.5 1249.5 398.422 1249.5 441.5 1249.5 484.578 1214.58 519.5 1171.5 519.5 1128.42 519.5 1093.5 484.578 1093.5 441.5Z" stroke="#25B189" stroke-width="73.3333" stroke-miterlimit="8" fill="none" fill-rule="evenodd"/><path d="M1171.5 485.5 1171.5 625.071" stroke="#25B189" stroke-width="73.3333" stroke-miterlimit="8" fill="none" fill-rule="evenodd"/><path d="M1034 844 1034 916.187" stroke="#25B189" stroke-width="110" stroke-linecap="round" stroke-linejoin="round" stroke-miterlimit="10" fill="none" fill-rule="evenodd"/><path d="M1309 844 1309 916.187" stroke="#25B189" stroke-width="110" stroke-linecap="round" stroke-linejoin="round" stroke-miterlimit="10" fill="none" fill-rule="evenodd"/><path d="M758 844 758 916.187" stroke="#25B189" stroke-width="110" stroke-linecap="round" stroke-linejoin="round" stroke-miterlimit="10" fill="none" fill-rule="evenodd"/><path d="M1584 844 1584 916.187" stroke="#25B189" stroke-width="110" stroke-linecap="round" stroke-linejoin="round" stroke-miterlimit="10" fill="none" fill-rule="evenodd"/></g></svg>