<svg viewBox="0 0 24 24" xmlns="http://www.w3.org/2000/svg" xmlns:xlink="http://www.w3.org/1999/xlink" id="Layer_1" overflow="hidden"><path d="M23.737 5.48C23.606 5.023 22.611 4.3 21.791 5.12 20.971 5.94 18.475 8.436 18.475 8.436 17.688 9.223 16.401 9.2 15.622 8.4 14.823 7.621 14.798 6.333 15.585 5.546 15.585 5.546 18.081 3.05 18.901 2.23 19.721 1.41 18.998 0.415 18.541 0.284 17.793 0.07 17.018-0.024 16.224 0.005 12.451 0.139 9.271 3.204 9.017 6.97 8.972 7.635 9.012 8.287 9.134 8.92 9.316 9.86 8.971 10.825 8.294 11.503L0.87 18.906C-0.292 20.069-0.285 21.965 0.863 23.137 2.035 24.286 3.931 24.293 5.094 23.131L12.518 15.727C13.195 15.05 14.16 14.705 15.101 14.887 15.734 15.009 16.386 15.049 17.051 15.004 20.818 14.75 23.882 11.57 24.016 7.797 24.044 7.003 23.951 6.228 23.737 5.48Z"/></svg>